PathFileType	4	(X/Y/Z)	C:\Users\italobelli\Desktop\GitHub\PTbot_officialCBL\Personal_Results\ABD23_noisy2.trc
DataRate	CameraRate	NumFrames	NumMarkers	Units	OrigDataRate	OrigDataStartFrame	OrigNumFrames
105.444444	105.444444	34	9	m	105.444444	713	950
Frame#	Time		gu		centelbow		EpL		centpxt8		centijc7		ij		ts		aa		ai
			X1	Y1	Z1	X2	Y2	Z2	X3	Y3	Z3	X4	Y4	Z4	X5	Y5	Z5	X6	Y6	Z6	X7	Y7	Z7	X8	Y8	Z8	X9	Y9	Z9

713	6.7524	-0.098132	-0.0059825	0.16029	-0.12679	-0.24807	0.18761	-0.12691	-0.24025	0.21881	-0.046816	-0.15316	-0.008669	-0.046816	0.031938	-0.008669	0	0	0	-0.12848	0.029059	0.036451	-0.12801	0.02884	0.1557	-0.14325	-0.083381	0.041486
714	6.7619	-0.098201	-0.0059198	0.16027	-0.12686	-0.24824	0.18749	-0.12695	-0.24041	0.2187	-0.046816	-0.15316	-0.008669	-0.046816	0.031938	-0.008669	0	0	0	-0.12853	0.029088	0.036473	-0.12801	0.028901	0.15573	-0.14338	-0.08334	0.041543
715	6.7713	-0.098271	-0.0058584	0.16026	-0.12694	-0.2484	0.18738	-0.12699	-0.24057	0.21859	-0.046816	-0.15316	-0.008669	-0.046816	0.031938	-0.008669	0	0	0	-0.12859	0.029118	0.036496	-0.128	0.028961	0.15575	-0.1435	-0.083299	0.0416
716	6.7808	-0.09834	-0.0057984	0.16024	-0.12701	-0.24856	0.18728	-0.12702	-0.24074	0.21849	-0.046816	-0.15316	-0.008669	-0.046816	0.031938	-0.008669	0	0	0	-0.12864	0.029146	0.036519	-0.128	0.02902	0.15577	-0.14362	-0.08326	0.041656
717	6.7903	-0.098407	-0.0057401	0.16022	-0.12708	-0.24872	0.18718	-0.12706	-0.2409	0.2184	-0.046816	-0.15316	-0.008669	-0.046816	0.031938	-0.008669	0	0	0	-0.12869	0.029174	0.036541	-0.128	0.029078	0.15579	-0.14375	-0.08322	0.041711
718	6.7998	-0.098474	-0.0056835	0.1602	-0.12715	-0.24889	0.18708	-0.12709	-0.24107	0.21831	-0.046816	-0.15316	-0.008669	-0.046816	0.031938	-0.008669	0	0	0	-0.12875	0.029201	0.036563	-0.12799	0.029135	0.15582	-0.14387	-0.083182	0.041766
719	6.8093	-0.09854	-0.005629	0.16019	-0.12722	-0.24905	0.18699	-0.12713	-0.24123	0.21822	-0.046816	-0.15316	-0.008669	-0.046816	0.031938	-0.008669	0	0	0	-0.1288	0.029228	0.036584	-0.12799	0.029191	0.15584	-0.14399	-0.083145	0.041821
720	6.8188	-0.098604	-0.0055766	0.16017	-0.12729	-0.24921	0.18691	-0.12717	-0.2414	0.21814	-0.046816	-0.15316	-0.008669	-0.046816	0.031938	-0.008669	0	0	0	-0.12886	0.029253	0.036605	-0.12799	0.029245	0.15586	-0.14411	-0.083109	0.041875
721	6.8282	-0.098667	-0.0055266	0.16016	-0.12736	-0.24938	0.18683	-0.1272	-0.24156	0.21807	-0.046816	-0.15316	-0.008669	-0.046816	0.031938	-0.008669	0	0	0	-0.12891	0.029278	0.036626	-0.12799	0.029298	0.15588	-0.14422	-0.083074	0.041928
722	6.8377	-0.098727	-0.0054791	0.16014	-0.12743	-0.24954	0.18676	-0.12724	-0.24173	0.21801	-0.046816	-0.15316	-0.008669	-0.046816	0.031938	-0.008669	0	0	0	-0.12896	0.029301	0.036647	-0.12799	0.029349	0.1559	-0.14434	-0.08304	0.041981
723	6.8472	-0.098786	-0.0054343	0.16013	-0.1275	-0.24971	0.1867	-0.12728	-0.2419	0.21795	-0.046816	-0.15316	-0.008669	-0.046816	0.031938	-0.008669	0	0	0	-0.12901	0.029323	0.036667	-0.12799	0.029398	0.15592	-0.14445	-0.083008	0.042032
724	6.8567	-0.098842	-0.0053925	0.16012	-0.12758	-0.24988	0.18664	-0.12732	-0.24207	0.21789	-0.046816	-0.15316	-0.008669	-0.046816	0.031938	-0.008669	0	0	0	-0.12907	0.029344	0.036687	-0.12799	0.029446	0.15594	-0.14456	-0.082977	0.042083
725	6.8662	-0.098896	-0.0053537	0.1601	-0.12765	-0.25005	0.18659	-0.12736	-0.24224	0.21785	-0.046816	-0.15316	-0.008669	-0.046816	0.031938	-0.008669	0	0	0	-0.12912	0.029364	0.036707	-0.128	0.029491	0.15596	-0.14466	-0.082948	0.042134
726	6.8757	-0.098947	-0.0053182	0.16009	-0.12772	-0.25021	0.18654	-0.1274	-0.24241	0.21781	-0.046816	-0.15316	-0.008669	-0.046816	0.031938	-0.008669	0	0	0	-0.12917	0.029382	0.036726	-0.128	0.029535	0.15598	-0.14476	-0.082921	0.042183
727	6.8851	-0.098995	-0.0052861	0.16008	-0.12779	-0.25038	0.18651	-0.12744	-0.24258	0.21777	-0.046816	-0.15316	-0.008669	-0.046816	0.031938	-0.008669	0	0	0	-0.12922	0.029399	0.036745	-0.128	0.029575	0.156	-0.14486	-0.082896	0.042231
728	6.8946	-0.099041	-0.0052577	0.16007	-0.12787	-0.25056	0.18648	-0.12748	-0.24276	0.21775	-0.046816	-0.15316	-0.008669	-0.046816	0.031938	-0.008669	0	0	0	-0.12926	0.029415	0.036764	-0.12801	0.029614	0.15602	-0.14496	-0.082872	0.042278
729	6.9041	-0.099082	-0.0052331	0.16006	-0.12794	-0.25073	0.18645	-0.12753	-0.24293	0.21773	-0.046816	-0.15316	-0.008669	-0.046816	0.031938	-0.008669	0	0	0	-0.12931	0.029429	0.036782	-0.12801	0.02965	0.15604	-0.14505	-0.082851	0.042325
730	6.9136	-0.099121	-0.0052125	0.16005	-0.12802	-0.2509	0.18644	-0.12757	-0.24311	0.21772	-0.046816	-0.15316	-0.008669	-0.046816	0.031938	-0.008669	0	0	0	-0.12936	0.029441	0.0368	-0.12802	0.029683	0.15606	-0.14514	-0.082832	0.04237
731	6.9231	-0.099155	-0.0051961	0.16004	-0.12809	-0.25108	0.18643	-0.12762	-0.24329	0.21771	-0.046816	-0.15316	-0.008669	-0.046816	0.031938	-0.008669	0	0	0	-0.1294	0.029451	0.036817	-0.12803	0.029713	0.15607	-0.14522	-0.082815	0.042414
732	6.9326	-0.099186	-0.005184	0.16004	-0.12817	-0.25125	0.18643	-0.12766	-0.24347	0.21771	-0.046816	-0.15316	-0.008669	-0.046816	0.031938	-0.008669	0	0	0	-0.12945	0.02946	0.036834	-0.12803	0.02974	0.15609	-0.1453	-0.0828	0.042457
733	6.942	-0.099212	-0.0051765	0.16003	-0.12824	-0.25143	0.18644	-0.12771	-0.24365	0.21773	-0.046816	-0.15316	-0.008669	-0.046816	0.031938	-0.008669	0	0	0	-0.12949	0.029466	0.036851	-0.12804	0.029764	0.15611	-0.14537	-0.082788	0.042498
734	6.9515	-0.099234	-0.0051737	0.16003	-0.12832	-0.25161	0.18646	-0.12776	-0.24383	0.21774	-0.046816	-0.15316	-0.008669	-0.046816	0.031938	-0.008669	0	0	0	-0.12953	0.029471	0.036867	-0.12805	0.029785	0.15612	-0.14544	-0.082778	0.042539
735	6.961	-0.099252	-0.0051758	0.16002	-0.1284	-0.25179	0.18648	-0.12781	-0.24402	0.21777	-0.046816	-0.15316	-0.008669	-0.046816	0.031938	-0.008669	0	0	0	-0.12957	0.029473	0.036883	-0.12806	0.029802	0.15614	-0.14551	-0.082771	0.042578
736	6.9705	-0.099264	-0.005183	0.16002	-0.12847	-0.25197	0.18652	-0.12786	-0.2442	0.21781	-0.046816	-0.15316	-0.008669	-0.046816	0.031938	-0.008669	0	0	0	-0.12961	0.029474	0.036898	-0.12807	0.029816	0.15616	-0.14556	-0.082767	0.042615
737	6.98	-0.099272	-0.0051955	0.16002	-0.12855	-0.25215	0.18656	-0.12791	-0.24439	0.21785	-0.046816	-0.15316	-0.008669	-0.046816	0.031938	-0.008669	0	0	0	-0.12964	0.029472	0.036913	-0.12808	0.029826	0.15617	-0.14562	-0.082766	0.042651
738	6.9895	-0.099275	-0.0052134	0.16002	-0.12863	-0.25233	0.18661	-0.12796	-0.24458	0.2179	-0.046816	-0.15316	-0.008669	-0.046816	0.031938	-0.008669	0	0	0	-0.12967	0.029468	0.036927	-0.1281	0.029833	0.15618	-0.14566	-0.082767	0.042686
739	6.9989	-0.099272	-0.005237	0.16002	-0.12871	-0.25252	0.18667	-0.12801	-0.24478	0.21796	-0.046816	-0.15316	-0.008669	-0.046816	0.031938	-0.008669	0	0	0	-0.12971	0.029461	0.036941	-0.12811	0.029835	0.1562	-0.14571	-0.082772	0.042719
740	7.0084	-0.099264	-0.0052653	0.16002	-0.12879	-0.25271	0.18674	-0.12807	-0.24498	0.21803	-0.046816	-0.15316	-0.008669	-0.046816	0.031938	-0.008669	0	0	0	-0.12974	0.029452	0.036955	-0.12812	0.029834	0.15621	-0.14574	-0.08278	0.042751
741	7.0179	-0.099254	-0.0052966	0.16002	-0.12888	-0.25291	0.18681	-0.12813	-0.24518	0.2181	-0.046816	-0.15316	-0.008669	-0.046816	0.031938	-0.008669	0	0	0	-0.12977	0.029439	0.036968	-0.12814	0.029831	0.15622	-0.14578	-0.082792	0.042783
742	7.0274	-0.099241	-0.0053309	0.16003	-0.12897	-0.25312	0.18688	-0.1282	-0.2454	0.21817	-0.046816	-0.15316	-0.008669	-0.046816	0.031938	-0.008669	0	0	0	-0.1298	0.029423	0.036981	-0.12815	0.029825	0.15624	-0.14581	-0.082807	0.042814
743	7.0369	-0.099225	-0.005368	0.16003	-0.12906	-0.25334	0.18695	-0.12827	-0.24563	0.21824	-0.046816	-0.15316	-0.008669	-0.046816	0.031938	-0.008669	0	0	0	-0.12983	0.029405	0.036993	-0.12817	0.029817	0.15625	-0.14584	-0.082825	0.042845
744	7.0464	-0.099207	-0.0054077	0.16004	-0.12916	-0.25356	0.18703	-0.12834	-0.24586	0.21831	-0.046816	-0.15316	-0.008669	-0.046816	0.031938	-0.008669	0	0	0	-0.12986	0.029383	0.037005	-0.12818	0.029807	0.15626	-0.14587	-0.082846	0.042875
745	7.0558	-0.099186	-0.0054501	0.16005	-0.12925	-0.2538	0.1871	-0.12842	-0.2461	0.21839	-0.046816	-0.15316	-0.008669	-0.046816	0.031938	-0.008669	0	0	0	-0.12989	0.029359	0.037016	-0.1282	0.029795	0.15627	-0.1459	-0.08287	0.042905
746	7.0653	-0.099163	-0.005495	0.16005	-0.12935	-0.25404	0.18718	-0.1285	-0.24634	0.21846	-0.046816	-0.15316	-0.008669	-0.046816	0.031938	-0.008669	0	0	0	-0.12991	0.029332	0.037027	-0.12822	0.029781	0.15628	-0.14592	-0.082897	0.042934
